<?xml version="1.0" encoding="UTF-8" standalone="no"?><svg xmlns="http://www.w3.org/2000/svg" xmlns:xlink="http://www.w3.org/1999/xlink" contentScriptType="application/ecmascript" contentStyleType="text/css" height="629px" preserveAspectRatio="none" style="width:417px;height:629px;" version="1.1" viewBox="0 0 417 629" width="417px" zoomAndPan="magnify"><defs><filter height="300%" id="f1ojvhf8up6tvh" width="300%" x="-1" y="-1"><feGaussianBlur result="blurOut" stdDeviation="2.0"/><feColorMatrix in="blurOut" result="blurOut2" type="matrix" values="0 0 0 0 0 0 0 0 0 0 0 0 0 0 0 0 0 0 .4 0"/><feOffset dx="4.0" dy="4.0" in="blurOut2" result="blurOut3"/><feBlend in="SourceGraphic" in2="blurOut3" mode="normal"/></filter></defs><g><!--cluster Reactive form--><polygon fill="#FFFFFF" filter="url(#f1ojvhf8up6tvh)" points="22,24,137,24,144,46.2969,216,46.2969,216,219,22,219,22,24" style="stroke: #000000; stroke-width: 1.5;"/><line style="stroke: #000000; stroke-width: 1.5;" x1="22" x2="144" y1="46.2969" y2="46.2969"/><text fill="#000000" font-family="sans-serif" font-size="14" font-weight="bold" lengthAdjust="spacingAndGlyphs" textLength="109" x="26" y="38.9951">Reactive form</text><!--cluster Reactive Form Assistant--><polygon fill="#FFFFFF" filter="url(#f1ojvhf8up6tvh)" points="32,252,228,252,235,274.2969,287,274.2969,287,349,32,349,32,252" style="stroke: #000000; stroke-width: 1.5;"/><line style="stroke: #000000; stroke-width: 1.5;" x1="32" x2="235" y1="274.2969" y2="274.2969"/><text fill="#000000" font-family="sans-serif" font-size="14" font-weight="bold" lengthAdjust="spacingAndGlyphs" textLength="190" x="36" y="266.9951">Reactive Form Assistant</text><!--cluster relay--><polygon fill="#FFFFFF" filter="url(#f1ojvhf8up6tvh)" points="27,413,75,413,82,435.2969,395,435.2969,395,617,27,617,27,413" style="stroke: #000000; stroke-width: 1.5;"/><line style="stroke: #000000; stroke-width: 1.5;" x1="27" x2="82" y1="435.2969" y2="435.2969"/><text fill="#000000" font-family="sans-serif" font-size="14" font-weight="bold" lengthAdjust="spacingAndGlyphs" textLength="42" x="31" y="427.9951">Relay</text><!--entity reactiveform--><rect fill="#FEFECE" filter="url(#f1ojvhf8up6tvh)" height="144.0781" style="stroke: #A80036; stroke-width: 1.5;" width="161" x="38.5" y="59"/><rect fill="#FEFECE" height="10" style="stroke: #A80036; stroke-width: 1.5;" width="15" x="179.5" y="64"/><rect fill="#FEFECE" height="2" style="stroke: #A80036; stroke-width: 1.5;" width="4" x="177.5" y="66"/><rect fill="#FEFECE" height="2" style="stroke: #A80036; stroke-width: 1.5;" width="4" x="177.5" y="70"/><text fill="#000000" font-family="sans-serif" font-size="14" lengthAdjust="spacingAndGlyphs" textLength="62" x="53.5" y="91.9951">Text field</text><text fill="#000000" font-family="sans-serif" font-size="14" lengthAdjust="spacingAndGlyphs" textLength="118" x="53.5" y="108.292">Dropdown select</text><text fill="#000000" font-family="sans-serif" font-size="14" lengthAdjust="spacingAndGlyphs" textLength="121" x="53.5" y="124.5889">Table (FormArray)</text><text fill="#000000" font-family="sans-serif" font-size="14" lengthAdjust="spacingAndGlyphs" textLength="47" x="53.5" y="140.8857">- row 1</text><text fill="#000000" font-family="sans-serif" font-size="14" lengthAdjust="spacingAndGlyphs" textLength="47" x="53.5" y="157.1826">- row 2</text><text fill="#000000" font-family="sans-serif" font-size="14" lengthAdjust="spacingAndGlyphs" textLength="47" x="53.5" y="173.4795">- row 3</text><text fill="#000000" font-family="sans-serif" font-size="14" lengthAdjust="spacingAndGlyphs" textLength="120" x="53.5" y="189.7764">FormGroups etc..</text><!--entity controlsubscribe--><polygon fill="#FEFECE" filter="url(#f1ojvhf8up6tvh)" points="48,297,58,287,156,287,156,323.2969,146,333.2969,48,333.2969,48,297" style="stroke: #000000; stroke-width: 1.5;"/><line style="stroke: #000000; stroke-width: 1.5;" x1="146" x2="155" y1="297" y2="288"/><line style="stroke: #000000; stroke-width: 1.5;" x1="48" x2="146" y1="297" y2="297"/><line style="stroke: #000000; stroke-width: 1.5;" x1="146" x2="146" y1="297" y2="333.2969"/><text fill="#000000" font-family="sans-serif" font-size="14" lengthAdjust="spacingAndGlyphs" textLength="68" x="63" y="319.9951">subscribe</text><!--entity controlpatch--><polygon fill="#FEFECE" filter="url(#f1ojvhf8up6tvh)" points="191.5,297,201.5,287,270.5,287,270.5,323.2969,260.5,333.2969,191.5,333.2969,191.5,297" style="stroke: #000000; stroke-width: 1.5;"/><line style="stroke: #000000; stroke-width: 1.5;" x1="260.5" x2="269.5" y1="297" y2="288"/><line style="stroke: #000000; stroke-width: 1.5;" x1="191.5" x2="260.5" y1="297" y2="297"/><line style="stroke: #000000; stroke-width: 1.5;" x1="260.5" x2="260.5" y1="297" y2="333.2969"/><text fill="#000000" font-family="sans-serif" font-size="14" lengthAdjust="spacingAndGlyphs" textLength="39" x="206.5" y="319.9951">patch</text><!--entity wsclient--><polygon fill="#FEFECE" filter="url(#f1ojvhf8up6tvh)" points="43,458,53,448,379,448,379,484.2969,369,494.2969,43,494.2969,43,458" style="stroke: #000000; stroke-width: 1.5;"/><line style="stroke: #000000; stroke-width: 1.5;" x1="369" x2="378" y1="458" y2="449"/><line style="stroke: #000000; stroke-width: 1.5;" x1="43" x2="369" y1="458" y2="458"/><line style="stroke: #000000; stroke-width: 1.5;" x1="369" x2="369" y1="458" y2="494.2969"/><text fill="#000000" font-family="sans-serif" font-size="14" lengthAdjust="spacingAndGlyphs" textLength="296" x="58" y="480.9951">Custom web socket client application code</text><!--entity wsserver--><polygon fill="#FEFECE" filter="url(#f1ojvhf8up6tvh)" points="128.5,565,138.5,555,293.5,555,293.5,591.2969,283.5,601.2969,128.5,601.2969,128.5,565" style="stroke: #000000; stroke-width: 1.5;"/><line style="stroke: #000000; stroke-width: 1.5;" x1="283.5" x2="292.5" y1="565" y2="556"/><line style="stroke: #000000; stroke-width: 1.5;" x1="128.5" x2="283.5" y1="565" y2="565"/><line style="stroke: #000000; stroke-width: 1.5;" x1="283.5" x2="283.5" y1="565" y2="601.2969"/><text fill="#000000" font-family="sans-serif" font-size="14" lengthAdjust="spacingAndGlyphs" textLength="125" x="143.5" y="587.9951">Websocket server</text><!--link reactiveform to controlsubscribe--><path d="M112.159,203.228 C109.505,230.857 106.627,260.824 104.6141,281.783 " fill="none" id="reactiveform-controlsubscribe" style="stroke: #A80036; stroke-width: 1.0;"/><polygon fill="#A80036" points="104.1216,286.91,108.9622,278.3328,104.5987,281.9328,100.9987,277.5694,104.1216,286.91" style="stroke: #A80036; stroke-width: 1.0;"/><!--link controlpatch to reactiveform--><path d="M217.022,286.91 C204.363,266.904 184.96,236.241 166.748,207.459 " fill="none" id="controlpatch-reactiveform" style="stroke: #A80036; stroke-width: 1.0;"/><polygon fill="#A80036" points="164.071,203.228,165.5039,212.9721,166.7448,207.453,172.2639,208.6939,164.071,203.228" style="stroke: #A80036; stroke-width: 1.0;"/><!--link wsclient to wsserver--><path d="M200.395,494.011 C197.819,510.143 197.563,532.151 199.627,549.4501 " fill="none" id="wsclient-wsserver" style="stroke: #A80036; stroke-width: 1.0;"/><polygon fill="#A80036" points="200.342,554.6559,203.0802,545.1953,199.6617,549.7024,195.1546,546.2839,200.342,554.6559" style="stroke: #A80036; stroke-width: 1.0;"/><!--link wsserver to wsclient--><path d="M222.285,554.6559 C224.978,538.4445 225.216,516.429 222.996,499.195 " fill="none" id="wsserver-wsclient" style="stroke: #A80036; stroke-width: 1.0;"/><polygon fill="#A80036" points="222.229,494.011,219.591,503.5,222.9617,498.957,227.5047,502.3277,222.229,494.011" style="stroke: #A80036; stroke-width: 1.0;"/><!--link controlsubscribe to wsclient--><path d="M100.8976,333.003 C100.968,351.341 103.4453,377.519 115,397 C126.619,416.59 145.698,432.712 163.798,444.777 " fill="none" id="controlsubscribe-wsclient" style="stroke: #A80036; stroke-width: 1.0;"/><polygon fill="#A80036" points="168.374,447.756,163.015,439.4928,164.1841,445.0275,158.6494,446.1966,168.374,447.756" style="stroke: #A80036; stroke-width: 1.0;"/><text fill="#000000" font-family="sans-serif" font-size="13" lengthAdjust="spacingAndGlyphs" textLength="92" x="116" y="378.0669">Outgoing form</text><text fill="#000000" font-family="sans-serif" font-size="13" lengthAdjust="spacingAndGlyphs" textLength="85" x="121.5" y="393.1997">update event</text><!--link wsclient to controlpatch--><path d="M213.789,447.824 C217.396,419.155 223.673,369.246 227.568,338.284 " fill="none" id="wsclient-controlpatch" style="stroke: #A80036; stroke-width: 1.0;"/><polygon fill="#A80036" points="228.219,333.108,223.1264,341.538,227.5946,338.0689,231.0638,342.5371,228.219,333.108" style="stroke: #A80036; stroke-width: 1.0;"/><text fill="#000000" font-family="sans-serif" font-size="13" lengthAdjust="spacingAndGlyphs" textLength="92" x="225" y="378.0669">Incoming form</text><text fill="#000000" font-family="sans-serif" font-size="13" lengthAdjust="spacingAndGlyphs" textLength="85" x="230.5" y="393.1997">update event</text><!--
@startuml
package "Reactive form" {
    component reactiveform [
        Text field
        Dropdown select
        Table (FormArray)
        - row 1
        - row 2
        - row 3
        FormGroups etc..
    ]
}

package "Reactive Form Assistant" {
    node "subscribe" as controlsubscribe
    node "patch" as controlpatch
}

reactiveform - -> controlsubscribe
controlpatch - -> reactiveform

package "Relay" as relay {
    top to bottom direction
    node "Custom web socket client application code" as wsclient    
    node "Websocket server" as wsserver
    wsclient - -> wsserver
    wsserver - -> wsclient
}

controlsubscribe - -> wsclient : "Outgoing form \nupdate event"
wsclient - -> controlpatch : "Incoming form \nupdate event"
@enduml

PlantUML version 1.2019.08(Sat Jul 13 19:25:14 UTC 2019)
(GPL source distribution)
Java Runtime: Java(TM) SE Runtime Environment
JVM: Java HotSpot(TM) 64-Bit Server VM
Java Version: 1.7.0_25-b15
Operating System: Linux
Default Encoding: UTF-8
Language: en
Country: US
--></g></svg>